<mxfile host="65bd71144e">
    <diagram id="naIOJMU5MfiB6Il63KxJ" name="ページ1">
        <mxGraphModel dx="1507" dy="582" grid="1" gridSize="10" guides="1" tooltips="1" connect="1" arrows="1" fold="1" page="1" pageScale="1" pageWidth="827" pageHeight="1169" math="0" shadow="0">
            <root>
                <mxCell id="0"/>
                <mxCell id="1" parent="0"/>
                <mxCell id="2" value="ユーザー" style="shape=umlActor;verticalLabelPosition=bottom;verticalAlign=top;html=1;outlineConnect=0;" parent="1" vertex="1">
                    <mxGeometry x="70" y="140" width="30" height="60" as="geometry"/>
                </mxCell>
                <mxCell id="4" value="" style="shape=umlBoundary;whiteSpace=wrap;html=1;" parent="1" vertex="1">
                    <mxGeometry x="220" width="80" height="60" as="geometry"/>
                </mxCell>
                <mxCell id="5" value="" style="endArrow=classic;html=1;exitX=1;exitY=0.3333333333333333;exitDx=0;exitDy=0;exitPerimeter=0;entryX=0.023;entryY=0.613;entryDx=0;entryDy=0;entryPerimeter=0;" parent="1" source="2" target="4" edge="1">
                    <mxGeometry width="50" height="50" relative="1" as="geometry">
                        <mxPoint x="110" y="170" as="sourcePoint"/>
                        <mxPoint x="220" y="160" as="targetPoint"/>
                    </mxGeometry>
                </mxCell>
                <mxCell id="6" value="robodog" style="text;html=1;align=center;verticalAlign=middle;whiteSpace=wrap;rounded=0;" parent="1" vertex="1">
                    <mxGeometry x="230" y="60" width="60" height="30" as="geometry"/>
                </mxCell>
                <mxCell id="7" value="変更" style="ellipse;shape=umlControl;whiteSpace=wrap;html=1;" parent="1" vertex="1">
                    <mxGeometry x="390" y="120" width="70" height="80" as="geometry"/>
                </mxCell>
                <mxCell id="9" value="時刻変更画面をクリック" style="text;html=1;align=center;verticalAlign=middle;whiteSpace=wrap;rounded=0;" parent="1" vertex="1">
                    <mxGeometry x="110" y="40" width="90" height="30" as="geometry"/>
                </mxCell>
                <mxCell id="10" value="" style="endArrow=classic;html=1;entryX=0;entryY=0.5;entryDx=0;entryDy=0;entryPerimeter=0;exitX=0.99;exitY=0.453;exitDx=0;exitDy=0;exitPerimeter=0;" parent="1" target="7" edge="1" source="18">
                    <mxGeometry width="50" height="50" relative="1" as="geometry">
                        <mxPoint x="300" y="160" as="sourcePoint"/>
                        <mxPoint x="440" y="270" as="targetPoint"/>
                    </mxGeometry>
                </mxCell>
                <mxCell id="12" value="結果表示" style="ellipse;shape=umlControl;whiteSpace=wrap;html=1;" parent="1" vertex="1">
                    <mxGeometry x="390" y="300" width="70" height="80" as="geometry"/>
                </mxCell>
                <mxCell id="13" value="" style="endArrow=classic;html=1;exitX=0.487;exitY=1.048;exitDx=0;exitDy=0;exitPerimeter=0;" parent="1" source="7" target="12" edge="1">
                    <mxGeometry width="50" height="50" relative="1" as="geometry">
                        <mxPoint x="340" y="320" as="sourcePoint"/>
                        <mxPoint x="390" y="270" as="targetPoint"/>
                    </mxGeometry>
                </mxCell>
                <mxCell id="14" value="オブジェクト" style="ellipse;shape=umlEntity;whiteSpace=wrap;html=1;" parent="1" vertex="1">
                    <mxGeometry x="530" y="130" width="70" height="70" as="geometry"/>
                </mxCell>
                <mxCell id="16" value="結果画面" style="shape=umlBoundary;whiteSpace=wrap;html=1;" parent="1" vertex="1">
                    <mxGeometry x="190" y="310" width="100" height="80" as="geometry"/>
                </mxCell>
                <mxCell id="17" value="" style="endArrow=classic;html=1;entryX=0.979;entryY=0.506;entryDx=0;entryDy=0;entryPerimeter=0;exitX=0.014;exitY=0.625;exitDx=0;exitDy=0;exitPerimeter=0;" parent="1" source="12" target="16" edge="1">
                    <mxGeometry width="50" height="50" relative="1" as="geometry">
                        <mxPoint x="340" y="320" as="sourcePoint"/>
                        <mxPoint x="390" y="270" as="targetPoint"/>
                    </mxGeometry>
                </mxCell>
                <mxCell id="18" value="システム画面" style="shape=umlBoundary;whiteSpace=wrap;html=1;" parent="1" vertex="1">
                    <mxGeometry x="210" y="120" width="100" height="80" as="geometry"/>
                </mxCell>
                <mxCell id="19" value="" style="endArrow=classic;html=1;entryX=-0.023;entryY=0.525;entryDx=0;entryDy=0;entryPerimeter=0;" parent="1" target="18" edge="1">
                    <mxGeometry width="50" height="50" relative="1" as="geometry">
                        <mxPoint x="100" y="160" as="sourcePoint"/>
                        <mxPoint x="390" y="100" as="targetPoint"/>
                    </mxGeometry>
                </mxCell>
                <mxCell id="20" value="時刻を入力する" style="text;html=1;align=center;verticalAlign=middle;whiteSpace=wrap;rounded=0;" parent="1" vertex="1">
                    <mxGeometry x="110" y="160" width="90" height="30" as="geometry"/>
                </mxCell>
                <mxCell id="21" value="表示" style="ellipse;shape=umlControl;whiteSpace=wrap;html=1;" parent="1" vertex="1">
                    <mxGeometry x="390" width="70" height="80" as="geometry"/>
                </mxCell>
                <mxCell id="22" value="" style="endArrow=classic;html=1;entryX=0.026;entryY=0.445;entryDx=0;entryDy=0;entryPerimeter=0;" parent="1" edge="1" target="21">
                    <mxGeometry width="50" height="50" relative="1" as="geometry">
                        <mxPoint x="300" y="39.5" as="sourcePoint"/>
                        <mxPoint x="379" y="39.5" as="targetPoint"/>
                    </mxGeometry>
                </mxCell>
                <mxCell id="24" value="" style="endArrow=classic;html=1;" parent="1" source="21" target="18" edge="1">
                    <mxGeometry width="50" height="50" relative="1" as="geometry">
                        <mxPoint x="340" y="150" as="sourcePoint"/>
                        <mxPoint x="390" y="100" as="targetPoint"/>
                    </mxGeometry>
                </mxCell>
                <mxCell id="25" value="" style="endArrow=classic;startArrow=classic;html=1;entryX=0;entryY=0.5;entryDx=0;entryDy=0;exitX=0.997;exitY=0.587;exitDx=0;exitDy=0;exitPerimeter=0;" edge="1" parent="1" source="7" target="14">
                    <mxGeometry width="50" height="50" relative="1" as="geometry">
                        <mxPoint x="390" y="150" as="sourcePoint"/>
                        <mxPoint x="440" y="100" as="targetPoint"/>
                    </mxGeometry>
                </mxCell>
            </root>
        </mxGraphModel>
    </diagram>
</mxfile>